<svg xmlns="http://www.w3.org/2000/svg" viewBox="0 0 128 128" fill="none">
  <defs>
    <linearGradient id="bg" x1="15" y1="10" x2="113" y2="118" gradientUnits="userSpaceOnUse">
      <stop stop-color="#F5F0FF"/>
      <stop offset="1" stop-color="#DDD0FF"/>
    </linearGradient>
    <linearGradient id="shirt" x1="64" y1="84" x2="64" y2="124" gradientUnits="userSpaceOnUse">
      <stop stop-color="#6D6CF6"/>
      <stop offset="1" stop-color="#4240C9"/>
    </linearGradient>
  </defs>
  <rect width="128" height="128" rx="32" fill="url(#bg)"/>
  <circle cx="100" cy="25" r="15" fill="#FFFFFF" fill-opacity=".38"/>
  <circle cx="23" cy="103" r="17" fill="#CDBDFF" fill-opacity=".6"/>
  <path d="M20 124c4-24 21-40 44-40 24 0 41 16 45 40H20Z" fill="url(#shirt)"/>
  <path d="M39 98c8-10 16-14 25-14s17 4 25 14l-9 26H48l-9-26Z" fill="#3230A5"/>
  <path d="M48 93c5-5 10-8 16-8 6 0 11 3 16 8l-6 8H54l-6-8Z" fill="#EFF2FF"/>
  <rect x="57" y="72" width="14" height="15" rx="7" fill="#D59B73"/>
  <circle cx="64" cy="51" r="24" fill="#E7B58B"/>
  <circle cx="42" cy="54" r="3.8" fill="#E7B58B"/>
  <circle cx="86" cy="54" r="3.8" fill="#E7B58B"/>
  <path d="M39 50c1-19 11-31 25-31 13 0 23 8 26 21-7-1-13 1-19 4-3-4-5-8-7-13-2 5-5 10-10 14-4 3-9 5-15 6v-1Z" fill="#191919"/>
  <path d="M46 34c5-7 12-11 21-11 8 0 15 3 20 8-8 1-14 4-19 9-3-3-5-6-8-10-3 4-7 7-14 10Z" fill="#343434"/>
  <path d="M55 28c4-2 9-3 13-2 5 1 10 4 13 8-5 1-10 3-13 7-3-4-7-8-13-13Z" fill="#4A4A4A"/>
  <circle cx="55.5" cy="54" r="2.6" fill="#171717"/>
  <circle cx="72.5" cy="54" r="2.6" fill="#171717"/>
  <path d="M58 64c2.2 2 9.8 2 12 0" stroke="#875541" stroke-linecap="round" stroke-width="2.4"/>
</svg>
