<svg xmlns="http://www.w3.org/2000/svg" viewBox="0 0 128 128" fill="none">
  <rect width="128" height="128" rx="32" fill="#FFF0F2"/>
  <circle cx="28" cy="95" r="12" fill="#FFD6DE"/>
  <path d="M23 121c4-22 20-35 41-35 20 0 36 13 41 35H23Z" fill="#DC2626"/>
  <path d="M34 102c8-9 18-14 30-14s22 5 30 14l-7 19H41l-7-19Z" fill="#B91C1C"/>
  <rect x="57" y="72" width="14" height="15" rx="7" fill="#E0AB86"/>
  <circle cx="64" cy="52" r="24" fill="#F2C5A1"/>
  <circle cx="41" cy="54" r="4" fill="#F2C5A1"/>
  <circle cx="87" cy="54" r="4" fill="#F2C5A1"/>
  <path d="M39 53c1-18 11-30 25-30 11 0 20 5 25 14-7-1-14 0-20 4-9 6-18 10-30 12Z" fill="#1E293B"/>
  <path d="M66 25c11 0 18 6 22 18-9-3-17-4-24-1 3-5 4-10 2-17Z" fill="#334155"/>
  <circle cx="56" cy="54" r="2.7" fill="#1E293B"/>
  <circle cx="72" cy="54" r="2.7" fill="#1E293B"/>
  <path d="M58 64c2 2 10 2 12 0" stroke="#945B47" stroke-linecap="round" stroke-width="2.4"/>
</svg>
