<svg xmlns="http://www.w3.org/2000/svg" viewBox="0 0 128 128" fill="none">
  <defs>
    <linearGradient id="bg" x1="13" y1="11" x2="115" y2="119" gradientUnits="userSpaceOnUse">
      <stop stop-color="#FFF8EC"/>
      <stop offset="1" stop-color="#FFE0AA"/>
    </linearGradient>
    <linearGradient id="shirt" x1="64" y1="85" x2="64" y2="124" gradientUnits="userSpaceOnUse">
      <stop stop-color="#F2A51A"/>
      <stop offset="1" stop-color="#CF7C00"/>
    </linearGradient>
  </defs>
  <rect width="128" height="128" rx="32" fill="url(#bg)"/>
  <circle cx="102" cy="26" r="14" fill="#FFFFFF" fill-opacity=".35"/>
  <circle cx="25" cy="101" r="17" fill="#FFD38A" fill-opacity=".56"/>
  <path d="M20 124c4-24 21-40 44-40 24 0 41 16 45 40H20Z" fill="url(#shirt)"/>
  <path d="M40 99c7-10 15-15 24-15 9 0 17 5 24 15l-8 25H48l-8-25Z" fill="#AC6500"/>
  <rect x="57" y="72" width="14" height="15" rx="7" fill="#CF956E"/>
  <circle cx="64" cy="51" r="24" fill="#E5B189"/>
  <circle cx="42" cy="54" r="3.8" fill="#E5B189"/>
  <circle cx="86" cy="54" r="3.8" fill="#E5B189"/>
  <circle cx="48" cy="34" r="8" fill="#2B221F"/>
  <circle cx="60" cy="29" r="9" fill="#2B221F"/>
  <circle cx="73" cy="30" r="9" fill="#2B221F"/>
  <circle cx="84" cy="36" r="8" fill="#2B221F"/>
  <path d="M39 50c2-14 11-23 25-23 14 0 23 8 25 22-6-2-13-4-22-4-11 0-19 2-28 7Z" fill="#3A2D29"/>
  <path d="M46 34c5-5 11-8 18-8 8 0 15 3 22 10-9-1-18 1-28 6-4-3-8-5-12-8Z" fill="#50403A"/>
  <circle cx="55.5" cy="54" r="2.6" fill="#1F1714"/>
  <circle cx="72.5" cy="54" r="2.6" fill="#1F1714"/>
  <path d="M58 64c2.1 2 9.9 2 12 0" stroke="#885441" stroke-linecap="round" stroke-width="2.4"/>
</svg>
