<svg xmlns="http://www.w3.org/2000/svg" viewBox="0 0 128 128" fill="none">
  <defs>
    <linearGradient id="bg" x1="14" y1="12" x2="114" y2="118" gradientUnits="userSpaceOnUse">
      <stop stop-color="#FFF3F5"/>
      <stop offset="1" stop-color="#FFD6DF"/>
    </linearGradient>
    <linearGradient id="shirt" x1="64" y1="84" x2="64" y2="124" gradientUnits="userSpaceOnUse">
      <stop stop-color="#E34F62"/>
      <stop offset="1" stop-color="#B6253A"/>
    </linearGradient>
  </defs>
  <rect width="128" height="128" rx="32" fill="url(#bg)"/>
  <circle cx="27" cy="102" r="18" fill="#FFC4D0" fill-opacity=".6"/>
  <circle cx="100" cy="26" r="14" fill="#FFFFFF" fill-opacity=".4"/>
  <path d="M20 124c4-24 21-40 44-40 24 0 41 16 45 40H20Z" fill="url(#shirt)"/>
  <path d="M39 98c8-9 16-14 25-14s17 5 25 14l-9 26H48l-9-26Z" fill="#981B30"/>
  <rect x="57" y="72" width="14" height="15" rx="7" fill="#DEA57D"/>
  <circle cx="64" cy="51" r="24" fill="#F2C5A0"/>
  <circle cx="42" cy="54" r="3.8" fill="#F2C5A0"/>
  <circle cx="86" cy="54" r="3.8" fill="#F2C5A0"/>
  <path d="M38 50c0-19 10-31 26-31 13 0 23 8 26 23-8-1-15 2-22 9-5 5-14 8-30 9v-10Z" fill="#243147"/>
  <path d="M47 29c6-7 14-10 23-10 7 0 13 3 18 8-8 2-15 6-21 13-5-4-12-8-20-11Z" fill="#40516E"/>
  <path d="M58 26c6-3 12-4 18-2 4 1 8 4 11 8-6 0-11 2-15 6-4-4-8-8-14-12Z" fill="#566883"/>
  <circle cx="55.5" cy="54" r="2.6" fill="#1C2432"/>
  <circle cx="72.5" cy="54" r="2.6" fill="#1C2432"/>
  <path d="M58 64c2.2 2 9.8 2 12 0" stroke="#935B47" stroke-linecap="round" stroke-width="2.4"/>
</svg>
