<svg xmlns="http://www.w3.org/2000/svg" viewBox="0 0 128 128" fill="none">
  <rect width="128" height="128" rx="32" fill="#E7FAF1"/>
  <circle cx="25" cy="28" r="12" fill="#D1F5E4"/>
  <path d="M24 121c5-23 20-36 40-36s35 13 40 36H24Z" fill="#10B981"/>
  <path d="M42 92c6-8 14-12 22-12s16 4 22 12l-8 29H50l-8-29Z" fill="#0F9C6B"/>
  <rect x="57" y="72" width="14" height="15" rx="7" fill="#DEAA7D"/>
  <circle cx="64" cy="52" r="24" fill="#F0C39B"/>
  <circle cx="41" cy="54" r="4" fill="#F0C39B"/>
  <circle cx="87" cy="54" r="4" fill="#F0C39B"/>
  <path d="M40 53c0-18 11-30 26-30 14 0 24 9 25 21-10-4-20-2-31 3-6 3-11 5-20 6Z" fill="#4B3428"/>
  <path d="M54 29c8-5 19-4 28 2-2 8-8 13-18 15-1-8-4-13-10-17Z" fill="#6B4B3A"/>
  <circle cx="56" cy="54" r="2.7" fill="#1F2937"/>
  <circle cx="72" cy="54" r="2.7" fill="#1F2937"/>
  <path d="M58 64c2 2 10 2 12 0" stroke="#935C45" stroke-linecap="round" stroke-width="2.4"/>
</svg>
