<svg xmlns="http://www.w3.org/2000/svg" viewBox="0 0 128 128" fill="none">
  <rect width="128" height="128" rx="32" fill="#E8F1FF"/>
  <circle cx="100" cy="28" r="14" fill="#D6E6FF"/>
  <path d="M25 121c3-20 18-35 39-35s36 15 39 35H25Z" fill="#3B82F6"/>
  <rect x="57" y="72" width="14" height="15" rx="7" fill="#E1AE84"/>
  <circle cx="64" cy="52" r="24" fill="#F2C6A0"/>
  <circle cx="41" cy="54" r="4" fill="#F2C6A0"/>
  <circle cx="87" cy="54" r="4" fill="#F2C6A0"/>
  <path d="M40 55c0-18 10-30 25-30 12 0 22 7 25 18v12c-6-5-14-8-25-8-10 0-18 3-25 8v0Z" fill="#1F2937"/>
  <path d="M46 43c5-8 12-12 21-12 6 0 11 2 16 6-5 1-8 4-10 9-7-5-17-6-27-3Z" fill="#374151"/>
  <circle cx="56" cy="53" r="2.7" fill="#1F2937"/>
  <circle cx="72" cy="53" r="2.7" fill="#1F2937"/>
  <path d="M58 64c2 2 10 2 12 0" stroke="#9A5B45" stroke-linecap="round" stroke-width="2.4"/>
</svg>
