<svg xmlns="http://www.w3.org/2000/svg" viewBox="0 0 128 128" fill="none">
  <defs>
    <linearGradient id="bg" x1="16" y1="10" x2="112" y2="118" gradientUnits="userSpaceOnUse">
      <stop stop-color="#F3F8FF"/>
      <stop offset="1" stop-color="#D9E9FF"/>
    </linearGradient>
    <linearGradient id="shirt" x1="64" y1="84" x2="64" y2="124" gradientUnits="userSpaceOnUse">
      <stop stop-color="#4C8DF6"/>
      <stop offset="1" stop-color="#2F5FCC"/>
    </linearGradient>
  </defs>
  <rect width="128" height="128" rx="32" fill="url(#bg)"/>
  <circle cx="101" cy="27" r="15" fill="#FFFFFF" fill-opacity=".42"/>
  <circle cx="24" cy="106" r="18" fill="#BFD8FF" fill-opacity=".55"/>
  <path d="M20 124c4-24 21-40 44-40 24 0 41 16 45 40H20Z" fill="url(#shirt)"/>
  <path d="M40 98c7-9 15-14 24-14 9 0 17 5 24 14l-8 26H48l-8-26Z" fill="#2550B5"/>
  <rect x="57" y="72" width="14" height="15" rx="7" fill="#DEA57D"/>
  <circle cx="64" cy="51" r="24" fill="#F3C7A0"/>
  <circle cx="42" cy="54" r="3.8" fill="#F3C7A0"/>
  <circle cx="86" cy="54" r="3.8" fill="#F3C7A0"/>
  <path d="M38 50c0-19 10-31 26-31 14 0 24 9 26 24-4-2-8-6-12-11-6 10-18 15-39 16l-1 2v0Z" fill="#1F2A44"/>
  <path d="M43 40c7-9 15-13 24-13 8 0 15 3 20 9-7 0-13 3-19 8-8-4-16-5-25-4Z" fill="#36507A"/>
  <path d="M49 31c6-4 13-6 20-5 6 1 11 4 15 8-6 0-12 2-17 6-5-4-11-7-18-9Z" fill="#4A6490"/>
  <path d="M47 70c3-7 8-11 17-11 8 0 13 4 17 11-4 4-10 7-17 7-8 0-13-3-17-7Z" fill="#F0BC92" fill-opacity=".55"/>
  <circle cx="55.5" cy="54" r="2.6" fill="#1D2433"/>
  <circle cx="72.5" cy="54" r="2.6" fill="#1D2433"/>
  <path d="M58 64c2.3 2 9.7 2 12 0" stroke="#935B47" stroke-linecap="round" stroke-width="2.4"/>
</svg>
