<svg xmlns="http://www.w3.org/2000/svg" viewBox="0 0 128 128" fill="none">
  <rect width="128" height="128" rx="32" fill="#FFF0F7"/>
  <circle cx="102" cy="28" r="14" fill="#FFD9EA"/>
  <path d="M23 121c4-22 20-35 41-35 20 0 36 13 41 35H23Z" fill="#EC4899"/>
  <rect x="57" y="72" width="14" height="15" rx="7" fill="#E0AB86"/>
  <circle cx="64" cy="52" r="24" fill="#F3C7A5"/>
  <circle cx="41" cy="54" r="4" fill="#F3C7A5"/>
  <circle cx="87" cy="54" r="4" fill="#F3C7A5"/>
  <path d="M37 50c0-19 11-31 27-31s27 12 27 31v18c-6-10-13-17-27-17s-21 7-27 17V50Z" fill="#6B4A3A"/>
  <path d="M45 41c6-6 12-9 19-9s13 3 19 9c-4 1-8 2-12 5-5-3-14-4-26-5Z" fill="#7A5643"/>
  <circle cx="56" cy="54" r="2.6" fill="#2F1D18"/>
  <circle cx="72" cy="54" r="2.6" fill="#2F1D18"/>
  <path d="M57 64c2 2 12 2 14 0" stroke="#955C48" stroke-linecap="round" stroke-width="2.4"/>
</svg>
