<svg xmlns="http://www.w3.org/2000/svg" viewBox="0 0 128 128" fill="none">
  <rect width="128" height="128" rx="32" fill="#F5F0FF"/>
  <circle cx="100" cy="94" r="13" fill="#E7DBFF"/>
  <path d="M24 121c5-22 21-35 40-35s35 13 40 35H24Z" fill="#8B5CF6"/>
  <rect x="57" y="72" width="14" height="15" rx="7" fill="#D9A37D"/>
  <circle cx="64" cy="52" r="24" fill="#F0C09D"/>
  <circle cx="41" cy="54" r="4" fill="#F0C09D"/>
  <circle cx="87" cy="54" r="4" fill="#F0C09D"/>
  <circle cx="92" cy="38" r="10" fill="#46305A"/>
  <path d="M38 50c0-18 10-30 26-30s27 12 27 30v20c-5-12-14-19-27-19S42 58 37 70l1-20Z" fill="#4C1D95"/>
  <path d="M45 42c6-7 12-10 19-10 8 0 15 3 20 10-6 0-12 2-16 5-6-3-13-5-23-5Z" fill="#5B21B6"/>
  <circle cx="56" cy="54" r="2.6" fill="#2B1A44"/>
  <circle cx="72" cy="54" r="2.6" fill="#2B1A44"/>
  <path d="M57 64c2 2 12 2 14 0" stroke="#8E5A45" stroke-linecap="round" stroke-width="2.4"/>
</svg>
