<svg xmlns="http://www.w3.org/2000/svg" viewBox="0 0 128 128" fill="none">
  <rect width="128" height="128" rx="32" fill="#EAFBF8"/>
  <circle cx="25" cy="28" r="12" fill="#D5F4ED"/>
  <path d="M24 121c5-22 21-35 40-35s35 13 40 35H24Z" fill="#14B8A6"/>
  <rect x="57" y="72" width="14" height="15" rx="7" fill="#D59F79"/>
  <circle cx="64" cy="52" r="24" fill="#EDBD98"/>
  <circle cx="41" cy="54" r="4" fill="#EDBD98"/>
  <circle cx="87" cy="54" r="4" fill="#EDBD98"/>
  <path d="M38 50c0-18 11-29 26-29 16 0 26 11 26 29v10c-7-7-16-11-26-11s-19 4-26 11V50Z" fill="#1F2937"/>
  <path d="M43 41c7-7 13-10 21-10 8 0 14 3 21 10-12 0-20 2-26 6-5-4-9-6-16-6Z" fill="#374151"/>
  <circle cx="56" cy="54" r="2.6" fill="#111827"/>
  <circle cx="72" cy="54" r="2.6" fill="#111827"/>
  <path d="M57 64c2 2 12 2 14 0" stroke="#8E5A45" stroke-linecap="round" stroke-width="2.4"/>
</svg>
